<?xml version="1.0" encoding="UTF-8" standalone="no"?>
<!-- Uploaded to: SVG Repo, www.svgrepo.com, Generator: SVG Repo Mixer Tools -->

<svg
   width="800px"
   height="800px"
   viewBox="0 -2 25 25"
   version="1.1"
   id="svg12"
   sodipodi:docname="back.svg"
   inkscape:version="1.2.2 (b0a8486541, 2022-12-01)"
   xmlns:inkscape="http://www.inkscape.org/namespaces/inkscape"
   xmlns:sodipodi="http://sodipodi.sourceforge.net/DTD/sodipodi-0.dtd"
   xmlns="http://www.w3.org/2000/svg"
   xmlns:svg="http://www.w3.org/2000/svg">
  <sodipodi:namedview
     id="namedview14"
     pagecolor="#ffffff"
     bordercolor="#000000"
     borderopacity="0.25"
     inkscape:showpageshadow="2"
     inkscape:pageopacity="0.0"
     inkscape:pagecheckerboard="0"
     inkscape:deskcolor="#d1d1d1"
     showgrid="false"
     inkscape:zoom="0.9775"
     inkscape:cx="400"
     inkscape:cy="400"
     inkscape:window-width="1920"
     inkscape:window-height="1011"
     inkscape:window-x="0"
     inkscape:window-y="0"
     inkscape:window-maximized="1"
     inkscape:current-layer="svg12" />
  <title
     id="title2">arrow_up [#367]</title>
  <desc
     id="desc4">Created with Sketch.</desc>
  <defs
     id="defs6" />
  <g
     id="Page-1"
     stroke="none"
     stroke-width="1"
     fill="none"
     fill-rule="evenodd"
     style="fill:#ffffff">
    <g
       id="Dribbble-Light-Preview"
       transform="translate(-260.000000, -6559.000000)"
       fill="#000000"
       style="fill:#ffffff">
      <g
         id="icons"
         transform="translate(56.000000, 160.000000)"
         style="fill:#ffffff">
        <path
           d="M222,6409.146 L222,6402.828 L218.684,6406.071 L217.234,6404.657 C219.355,6402.535 220.728,6401.144 222.872,6399 C224.938,6401.066 226.515,6402.652 228.52,6404.657 L227.174,6406.071 L224,6402.828 L224,6409.146 C224,6414.669 219.523,6419.146 214,6419.146 L214,6419.146 C208.477,6419.146 204,6414.669 204,6409.146 L204,6399.146 L206,6399.146 L206,6409.146 C206,6413.564 209.582,6417.146 214,6417.146 L214,6417.146 C218.418,6417.146 222,6413.564 222,6409.146"
           id="arrow_up-[#367]"
           style="fill:#ffffff" />
      </g>
    </g>
  </g>
</svg>
