<?xml version="1.0" encoding="UTF-8" standalone="no"?>
<!-- Svg Vector Icons : http://www.onlinewebfonts.com/icon -->

<svg
   version="1.1"
   x="0px"
   y="0px"
   viewBox="0 0 1000 1000"
   enable-background="new 0 0 1000 1000"
   xml:space="preserve"
   id="svg10"
   sodipodi:docname="fullscreen.svg"
   inkscape:version="1.2.2 (b0a8486541, 2022-12-01)"
   xmlns:inkscape="http://www.inkscape.org/namespaces/inkscape"
   xmlns:sodipodi="http://sodipodi.sourceforge.net/DTD/sodipodi-0.dtd"
   xmlns="http://www.w3.org/2000/svg"
   xmlns:svg="http://www.w3.org/2000/svg"><defs
   id="defs14" /><sodipodi:namedview
   id="namedview12"
   pagecolor="#ffffff"
   bordercolor="#000000"
   borderopacity="0.25"
   inkscape:showpageshadow="2"
   inkscape:pageopacity="0.0"
   inkscape:pagecheckerboard="0"
   inkscape:deskcolor="#d1d1d1"
   showgrid="false"
   inkscape:zoom="0.782"
   inkscape:cx="500"
   inkscape:cy="500"
   inkscape:window-width="1920"
   inkscape:window-height="1011"
   inkscape:window-x="0"
   inkscape:window-y="0"
   inkscape:window-maximized="1"
   inkscape:current-layer="svg10" />
<metadata
   id="metadata2"> Svg Vector Icons : http://www.onlinewebfonts.com/icon </metadata>
<g
   id="g8"
   style="fill:#ffffff"><path
     d="M885,80c21,0,35,14,35,35v770c0,21-14,35-35,35H115c-21,0-35-14-35-35V115c0-21,14-35,35-35H885 M885,10H115C55.5,10,10,55.5,10,115v770c0,59.5,45.5,105,105,105h770c59.5,0,105-45.5,105-105V115C990,55.5,944.5,10,885,10L885,10z"
     id="path4"
     style="fill:#ffffff" /><path
     d="M570,185l87.5,87.5L535,395l70,70l122.5-122.5L815,430V185H570z M395,535L272.5,657.5L185,570v245h245l-87.5-87.5L465,605L395,535z"
     id="path6"
     style="fill:#ffffff" /></g>
</svg>
