<?xml version="1.0" encoding="UTF-8" standalone="no"?>
<!-- Uploaded to: SVG Repo, www.svgrepo.com, Generator: SVG Repo Mixer Tools -->

<svg
   fill="#000000"
   version="1.1"
   id="Capa_1"
   width="800px"
   height="800px"
   viewBox="0 0 558.957 558.957"
   xml:space="preserve"
   sodipodi:docname="left-arrow.svg"
   inkscape:version="1.2.2 (b0a8486541, 2022-12-01)"
   xmlns:inkscape="http://www.inkscape.org/namespaces/inkscape"
   xmlns:sodipodi="http://sodipodi.sourceforge.net/DTD/sodipodi-0.dtd"
   xmlns="http://www.w3.org/2000/svg"
   xmlns:svg="http://www.w3.org/2000/svg"><defs
   id="defs11" /><sodipodi:namedview
   id="namedview9"
   pagecolor="#ffffff"
   bordercolor="#000000"
   borderopacity="0.25"
   inkscape:showpageshadow="2"
   inkscape:pageopacity="0.0"
   inkscape:pagecheckerboard="0"
   inkscape:deskcolor="#d1d1d1"
   showgrid="false"
   inkscape:zoom="0.9775"
   inkscape:cx="400.51151"
   inkscape:cy="400"
   inkscape:window-width="1920"
   inkscape:window-height="1011"
   inkscape:window-x="0"
   inkscape:window-y="0"
   inkscape:window-maximized="1"
   inkscape:current-layer="Capa_1" />
<g
   id="g6">
	<g
   id="g4">
		<polygon
   points="462.745,0 96.212,279.479 462.745,558.957 462.745,419.221 278.713,279.479 462.745,139.738   "
   id="polygon2" />
	</g>
</g>
<path
   style="fill:#ffffff;fill-opacity:0.993483;stroke-width:1.02302"
   d="M 400.44183,599.50371 C 257.28881,490.35607 140.03745,400.67502 139.88328,400.21249 139.65808,399.53691 655.10998,5.6485445 659.99605,2.7624654 661.15686,2.0768076 661.37959,17.975702 661.3719,100.97218 L 661.36272,200 529.92609,299.74425 C 457.63593,354.60358 398.48972,399.71867 398.49007,400 c 3.4e-4,0.28133 59.14592,45.39642 131.43461,100.25575 L 661.35866,600 l 0.0113,98.97698 c 0.006,54.43734 -0.13752,98.97698 -0.3193,98.97698 -0.18177,0 -117.4557,-89.30261 -260.60874,-198.45025 z"
   id="path1589"
   transform="scale(0.69869625)" /></svg>
