<?xml version="1.0" encoding="UTF-8" standalone="no"?>
<!-- Svg Vector Icons : http://www.onlinewebfonts.com/icon -->

<svg
   version="1.1"
   x="0px"
   y="0px"
   viewBox="0 0 1000 1000"
   enable-background="new 0 0 1000 1000"
   xml:space="preserve"
   id="svg8"
   sodipodi:docname="search.svg"
   inkscape:version="1.2.2 (b0a8486541, 2022-12-01)"
   xmlns:inkscape="http://www.inkscape.org/namespaces/inkscape"
   xmlns:sodipodi="http://sodipodi.sourceforge.net/DTD/sodipodi-0.dtd"
   xmlns="http://www.w3.org/2000/svg"
   xmlns:svg="http://www.w3.org/2000/svg"><defs
   id="defs12" /><sodipodi:namedview
   id="namedview10"
   pagecolor="#ffffff"
   bordercolor="#000000"
   borderopacity="0.25"
   inkscape:showpageshadow="2"
   inkscape:pageopacity="0.0"
   inkscape:pagecheckerboard="0"
   inkscape:deskcolor="#d1d1d1"
   showgrid="false"
   inkscape:zoom="0.782"
   inkscape:cx="500.63939"
   inkscape:cy="500"
   inkscape:window-width="1920"
   inkscape:window-height="1011"
   inkscape:window-x="0"
   inkscape:window-y="0"
   inkscape:window-maximized="1"
   inkscape:current-layer="svg8" />
<metadata
   id="metadata2"> Svg Vector Icons : http://www.onlinewebfonts.com/icon </metadata>
<g
   id="g6"><path
     d="M960.9,820.2c18,18,29.1,42.9,29.1,70.3c0,54.9-44.5,99.5-99.4,99.5c-27.5,0-52.3-11.1-70.3-29.1l0,0L609.6,750.2c-59.2,35-128,55.4-201.8,55.4C188.1,805.6,10,627.5,10,407.8C10,188.1,188.1,10,407.8,10c219.7,0,397.8,178.1,397.8,397.8c0,73.7-20.4,142.6-55.4,201.8L960.9,820.2L960.9,820.2z M407.8,109.4C243,109.4,109.4,243,109.4,407.8c0,164.8,133.6,298.3,298.3,298.3s298.3-133.6,298.3-298.3C706.1,243,572.6,109.4,407.8,109.4z"
     id="path4" /></g>
<path
   style="fill:#ffffff;fill-opacity:0.993483;stroke-width:1.27877"
   d="m 877.28762,988.42577 c -15.49563,-2.41688 -29.35634,-7.87803 -42.88864,-16.89819 -3.16496,-2.10965 -54.96706,-52.96755 -115.11577,-113.01755 l -109.36128,-109.18181 -14.19789,7.73901 c -44.90225,24.47538 -95.92634,40.18193 -149.32303,45.96549 -16.1194,1.74595 -60.16368,1.77145 -76.78391,0.0445 C 290.46304,794.85231 220.73276,766.2663 157.92839,716.29515 151.2468,710.97885 137.14834,697.97109 126.59847,687.38902 94.642776,655.33575 72.433426,624.30683 52.424399,583.75959 31.622066,541.60476 20.228755,504.91794 14.053301,460.20343 11.177416,439.38005 10.165592,395.64969 12.073768,374.64936 19.344208,294.63488 48.158257,222.44535 97.811109,159.84655 110.97064,143.25595 142.9454,111.19577 159.20716,98.286501 218.80192,50.977662 285.24134,23.120032 361.89258,13.30178 c 20.08585,-2.572793 66.62603,-2.940632 86.31714,-0.682223 78.23257,8.972633 148.34951,37.755896 207.40913,85.14221 122.92366,98.627423 176.13763,259.510623 135.93271,410.968863 -7.05298,26.56966 -14.98893,47.24489 -28.97854,75.49677 l -12.89597,26.04328 109.38468,109.5066 c 78.41044,78.49785 110.85319,111.808 114.57071,117.63392 6.30443,9.88001 12.06567,24.64028 14.23582,36.4721 1.95756,10.67276 0.99365,31.40141 -1.96968,42.35711 -7.26839,26.87196 -26.77277,50.21797 -52.39474,62.7145 -17.77482,8.66927 -38.72568,12.1989 -56.21622,9.47086 z M 428.17781,705.88588 c 74.95503,-5.48307 141.35294,-36.28712 193.37013,-89.71043 23.57879,-24.21617 38.8329,-45.68817 54.03281,-76.05771 29.5597,-59.06046 38.20642,-128.0284 24.46172,-195.11136 -1.48357,-7.24073 -5.55862,-21.79666 -9.05567,-32.34653 -28.32808,-85.45981 -94.12327,-153.42043 -179.48501,-185.39213 -32.61063,-12.2141 -65.22899,-17.842 -103.5734,-17.87031 -36.9727,-0.0273 -63.18336,4.16147 -96.54732,15.42938 -107.74249,36.38756 -185.13741,131.22845 -200.07439,245.17413 -2.56478,19.56531 -2.5628,56.29902 0.004,75.90545 4.47562,34.18551 13.22064,62.94739 28.6946,94.37496 29.59301,60.1033 75.60536,105.92069 136.20945,135.6323 48.62709,23.83978 99.26457,33.82721 151.96298,29.97225 z"
   id="path1590" /></svg>
