<?xml version="1.0" encoding="UTF-8" standalone="no"?>
<svg
   version="1.1"
   id="Layer_1"
   x="0px"
   y="0px"
   viewBox="0 0 1291.116 1638.771"
   enable-background="new 0 0 1291.116 1638.771"
   xml:space="preserve"
   sodipodi:docname="user.svg"
   inkscape:version="1.2.2 (b0a8486541, 2022-12-01)"
   xmlns:inkscape="http://www.inkscape.org/namespaces/inkscape"
   xmlns:sodipodi="http://sodipodi.sourceforge.net/DTD/sodipodi-0.dtd"
   xmlns="http://www.w3.org/2000/svg"
   xmlns:svg="http://www.w3.org/2000/svg"><defs
   id="defs8" /><sodipodi:namedview
   id="namedview6"
   pagecolor="#ffffff"
   bordercolor="#000000"
   borderopacity="0.25"
   inkscape:showpageshadow="2"
   inkscape:pageopacity="0.0"
   inkscape:pagecheckerboard="0"
   inkscape:deskcolor="#d1d1d1"
   showgrid="false"
   inkscape:zoom="0.47718687"
   inkscape:cx="648.59287"
   inkscape:cy="819.3855"
   inkscape:window-width="1920"
   inkscape:window-height="1011"
   inkscape:window-x="0"
   inkscape:window-y="0"
   inkscape:window-maximized="1"
   inkscape:current-layer="Layer_1" />
<g
   id="status">
	<path
   id="path3940-5"
   d="M959.98,769.382C873.16,846.125,770.543,880.92,645.557,880.92s-228.083-35.757-314.903-112.5   c-136.539,44.711-299.819,158.492-300,357.211l-0.48,370.673c-0.089,68.183,54.892,123.081,123.077,123.081h984.614   c68.185,0,123.077-54.894,123.077-123.081v-369.23c0-170.673-135.669-314.558-300.961-357.692L959.98,769.382L959.98,769.382z" />
	<path
   id="path3942-6"
   d="M1014.788,388.615c0,203.92-165.31,369.23-369.23,369.23s-369.23-165.311-369.23-369.23   s165.31-369.23,369.23-369.23S1014.788,184.696,1014.788,388.615z" />
</g>
<path
   style="fill:#ffffff;fill-opacity:0.993483;stroke-width:2.09562"
   d="m 610.8718,755.17726 c -2.88147,-0.42298 -12.31174,-1.78463 -20.95615,-3.02588 C 490.28191,737.84484 398.04689,679.13386 340.22978,593.21714 256.68937,469.0754 256.67293,308.97428 340.18776,184.20082 394.83775,102.55224 479.1853,46.510161 576.54862,27.15829 623.86746,17.75323 687.37147,19.519046 734.89034,31.561197 855.85077,62.21478 954.69046,153.68908 994.02136,271.38215 c 14.56414,43.58142 18.10634,66.53985 18.10634,117.35445 0,37.49571 -0.7081,47.52258 -4.7848,67.75918 -16.74169,83.10365 -61.20129,159.75261 -122.5118,211.21197 -70.75449,59.3859 -153.22216,89.49418 -242.47011,88.52391 -14.43757,-0.15696 -28.60772,-0.63145 -31.48919,-1.0544 z"
   id="path1586" /><path
   style="fill:#ffffff;fill-opacity:0.993483;stroke-width:2.09562"
   d="m 121.54567,1613.8968 c -42.513841,-12.2378 -76.778812,-47.7235 -87.275519,-90.3846 -2.313235,-9.4016 -2.705712,-50.1502 -2.129436,-221.0874 0.656516,-194.7384 0.989977,-211.2435 4.714296,-233.3405 C 53.77005,968.7244 117.98637,881.9474 221.395,819.7111 c 22.63269,-13.62145 69.06635,-35.8942 90.61482,-43.46506 19.13379,-6.72248 14.88547,-8.17338 46.58846,15.91099 61.3988,46.64387 128.53556,73.53479 212.69217,85.19156 35.06406,4.85683 114.46518,4.89041 149.11609,0.0631 55.91562,-7.78979 98.30289,-20.31801 142.98687,-42.26199 30.67312,-15.06336 57.1626,-31.77157 81.392,-51.33792 l 16.4279,-13.2663 26.54321,8.75655 c 118.34388,39.04142 219.08288,135.74541 254.60378,244.40597 18.0142,55.1066 18.5767,64.5762 17.7378,298.6251 -0.6564,183.1356 -0.9527,196.6932 -4.5351,207.4659 -14.0059,42.1185 -47.4242,74.0075 -88.7893,84.7263 -11.3737,2.9472 -65.7647,3.274 -522.67454,3.1403 -476.60843,-0.1396 -510.80257,-0.3862 -522.55349,-3.7688 z"
   id="path1588" /></svg>
