<?xml version="1.0" encoding="UTF-8" standalone="no"?>
<!-- Svg Vector Icons : http://www.onlinewebfonts.com/icon -->

<svg
   version="1.1"
   x="0px"
   y="0px"
   viewBox="0 0 1000 1000"
   enable-background="new 0 0 1000 1000"
   xml:space="preserve"
   id="svg16"
   sodipodi:docname="adblockicon.svg"
   inkscape:version="1.2.2 (b0a8486541, 2022-12-01)"
   xmlns:inkscape="http://www.inkscape.org/namespaces/inkscape"
   xmlns:sodipodi="http://sodipodi.sourceforge.net/DTD/sodipodi-0.dtd"
   xmlns="http://www.w3.org/2000/svg"
   xmlns:svg="http://www.w3.org/2000/svg"><defs
   id="defs20" /><sodipodi:namedview
   id="namedview18"
   pagecolor="#ffffff"
   bordercolor="#000000"
   borderopacity="0.25"
   inkscape:showpageshadow="2"
   inkscape:pageopacity="0.0"
   inkscape:pagecheckerboard="0"
   inkscape:deskcolor="#d1d1d1"
   showgrid="false"
   inkscape:zoom="0.782"
   inkscape:cx="500.63939"
   inkscape:cy="500"
   inkscape:window-width="1920"
   inkscape:window-height="1011"
   inkscape:window-x="0"
   inkscape:window-y="0"
   inkscape:window-maximized="1"
   inkscape:current-layer="svg16" />
<metadata
   id="metadata2"> Svg Vector Icons : http://www.onlinewebfonts.com/icon </metadata>
<g
   id="g14"
   style="fill:#ffffff"><g
     transform="translate(0.000000,512.000000) scale(0.100000,-0.100000)"
     id="g12"
     style="fill:#ffffff"><path
       d="M4566.9,5006.8C3035.2,4857.2,1643.5,3992.7,834.5,2687.2C-262.1,914-120.2-1319.4,1189.1-2946.9c314.4-389.1,728.5-764.9,1150.2-1042.8c111.2-72.8,348.9-205.1,527.2-293.3c492.7-243.5,975.7-389.2,1552.8-471.6c222.4-30.7,947-30.7,1169.4,0c577,82.4,1060.1,228.1,1552.8,471.6c521.4,258.8,927.8,546.3,1322.7,941.3c394.9,394.9,682.5,801.3,941.3,1322.7c243.5,492.7,389.2,975.8,471.6,1552.8c30.7,222.4,30.7,947,0,1169.4c-132.3,935.5-490.8,1777.1-1058.2,2480.6c-786,973.8-1886.3,1602.6-3143.9,1794.3C5433.4,5014.4,4814.2,5029.8,4566.9,5006.8z M5502.4,4690.5c1780.9-187.9,3285.8-1386,3851.3-3067.2c180.2-534.8,241.5-914.4,241.5-1504.8c0-590.4-61.3-971.9-241.5-1504.8c-557.9-1648.6-1986-2814.2-3755.4-3061.5c-237.7-32.6-950.8-32.6-1188.5,0C2640.3-4200.6,1210.2-3035.1,652.4-1382.6c-509.9,1512.5-224.3,3161.1,763,4395.7c778.3,973.8,1915.1,1571.9,3224.4,1694.6C4821.9,4723.1,5272.3,4715.4,5502.4,4690.5z"
       id="path4"
       style="fill:#ffffff" /><path
       d="M4591.8,4393.3c-764.9-80.5-1518.3-375.7-2156.6-849.2c-233.9-174.5-682.5-623-856.9-856.9C612.1,1385.5,445.3-255.4,1129.7-1712.3c205.1-433.2,475.4-812.8,853.1-1190.4c672.9-671,1422.4-1058.2,2369.4-1219.2c343.1-59.4,960.4-59.4,1303.6,0c732.3,124.6,1322.7,375.7,1917,816.7c233.9,172.5,682.5,621.1,855,855c440.9,594.3,692.1,1184.7,816.7,1917c34.5,193.6,42.2,318.2,42.2,651.8c0,333.6-7.7,458.2-42.2,651.8c-124.6,732.3-375.7,1322.7-816.7,1917c-172.5,233.9-621.1,682.5-855,855c-592.4,439-1194.3,695.9-1907.4,814.7C5397,4401,4852.5,4420.2,4591.8,4393.3z M5408.4,4086.6c1376.4-139.9,2572.6-966.2,3172.6-2195c688.2-1410.9,496.5-3105.6-490.7-4313.3c-63.3-78.6-126.5-147.6-136.1-155.3c-13.4-7.7-299.1,264.6-661.4,626.9l-640.3,640.3L6543.3-1421l-111.2-109.3l640.3-640.3c362.3-362.3,634.5-648,626.8-661.4c-7.7-9.6-76.7-72.9-155.3-136.1c-1207.7-987.2-2902.4-1179-4313.3-490.7c-1790.5,876.1-2641.6,2948.4-2001.4,4873c92,274.1,272.2,651.8,419.8,879.9c105.4,159.1,341.2,463.9,393,508c26.8,23,111.2-53.7,672.9-615.4l640.3-640.3l109.3,111.2l111.2,109.3l-640.3,640.3c-561.7,561.7-638.4,646-615.4,672.9c44.1,51.8,348.9,287.6,508,393c477.3,310.6,1159.8,550.2,1744.5,611.5C4796.9,4107.7,5182.2,4107.7,5408.4,4086.6z"
       id="path6"
       style="fill:#ffffff" /><path
       d="M3926.6,1320.4c-189.8-70.9-301-168.7-394.9-347l-51.8-97.8l-5.7-991.1l-5.8-993h155.3h153.4v383.4v383.4h383.4h383.4v-383.4v-383.4h153.4h155.3l-5.7,993l-5.7,991.1l-65.2,120.8c-74.8,136.1-151.4,210.9-295.2,285.6c-84.4,44.1-128.4,51.8-291.4,57.5C4060.8,1343.4,3974.5,1337.6,3926.6,1320.4z M4423.1,988.7c111.2-80.5,120.8-128.4,120.8-596.2V-35h-385.3h-383.4l5.8,448.6c5.7,419.8,7.7,452.4,46,504.2c70.9,97.8,149.5,122.7,356.6,116.9C4334.9,1030.9,4379,1021.3,4423.1,988.7z"
       id="path8"
       style="fill:#ffffff" /><path
       d="M5157.3,118.4v-1228.8l456.3,5.7c452.4,5.7,454.3,5.7,554,57.5c145.7,76.7,220.4,151.4,295.2,287.5l65.2,120.8v757.2v757.2l-47.9,95.8c-59.4,122.7-193.6,256.9-316.3,316.3c-92,46-111.2,47.9-550.2,53.7l-456.3,5.8V118.4z M6110.1,988.7c118.9-86.3,120.8-99.7,120.8-870.3c0-770.6-1.9-784-120.8-870.3c-47.9-36.4-86.3-40.3-350.8-46l-295.2-5.7v922.1v922.1l295.2-5.8C6023.8,1029,6062.2,1025.1,6110.1,988.7z"
       id="path10"
       style="fill:#ffffff" /></g></g>
</svg>
