<?xml version="1.0" encoding="UTF-8" standalone="no"?>
<!-- Created with Inkscape (http://www.inkscape.org/) -->

<svg
   width="128"
   height="128"
   id="svg3000"
   version="1.1"
   inkscape:version="1.2.2 (b0a8486541, 2022-12-01)"
   sodipodi:docname="home.svg"
   xmlns:inkscape="http://www.inkscape.org/namespaces/inkscape"
   xmlns:sodipodi="http://sodipodi.sourceforge.net/DTD/sodipodi-0.dtd"
   xmlns="http://www.w3.org/2000/svg"
   xmlns:svg="http://www.w3.org/2000/svg"
   xmlns:rdf="http://www.w3.org/1999/02/22-rdf-syntax-ns#"
   xmlns:cc="http://creativecommons.org/ns#"
   xmlns:dc="http://purl.org/dc/elements/1.1/">
  <defs
     id="defs3002" />
  <sodipodi:namedview
     id="base"
     pagecolor="#ffffff"
     bordercolor="#666666"
     borderopacity="1.0"
     inkscape:pageopacity="0.0"
     inkscape:pageshadow="2"
     inkscape:zoom="5.6568543"
     inkscape:cx="82.201163"
     inkscape:cy="67.528697"
     inkscape:document-units="px"
     inkscape:current-layer="layer1"
     showgrid="false"
     showborder="true"
     inkscape:showpageshadow="false"
     inkscape:window-width="1920"
     inkscape:window-height="1011"
     inkscape:window-x="0"
     inkscape:window-y="0"
     inkscape:window-maximized="1"
     inkscape:pagecheckerboard="0"
     inkscape:deskcolor="#d1d1d1" />
  <metadata
     id="metadata3005">
    <rdf:RDF>
      <cc:Work
         rdf:about="">
        <dc:format>image/svg+xml</dc:format>
        <dc:type
           rdf:resource="http://purl.org/dc/dcmitype/StillImage" />
        <dc:title />
      </cc:Work>
    </rdf:RDF>
  </metadata>
  <g
     inkscape:label="Camada 1"
     inkscape:groupmode="layer"
     id="layer1"
     transform="translate(0,-924.36218)">
    <path
       style="fill:#ffffff;fill-opacity:0.993483;stroke-width:0.187727"
       d="m 20.649592,1051.6095 c -0.314869,-0.1372 -0.800614,-0.5205 -1.079433,-0.8519 l -0.506943,-0.6024 v -28.8568 -28.85669 L 41.35585,972.72239 c 12.260949,-10.84563 22.362466,-19.74057 22.447812,-19.76654 0.08535,-0.026 10.201512,8.84432 22.480362,19.71175 l 22.325186,19.75898 -7.5e-4,28.73792 c -7.5e-4,28.1537 -0.008,28.7501 -0.3665,29.3378 -0.82961,1.3606 0.23043,1.2715 -15.815916,1.3288 l -14.416409,0.051 v -12.8886 c 0,-12.5945 -0.0086,-12.9026 -0.378414,-13.5009 -0.774982,-1.2539 -0.337303,-1.2155 -13.82338,-1.2151 -13.598768,3e-4 -13.064302,-0.05 -13.857074,1.3138 -0.372361,0.6407 -0.383131,0.9751 -0.433789,13.4694 l -0.05195,12.8124 -14.121474,-0.01 c -11.316067,-0.01 -14.235207,-0.057 -14.693964,-0.2567 z"
       id="path2310" />
    <path
       style="fill:#ffffff;fill-opacity:0.993483;stroke-width:0.187727"
       d="M 3.4960489,63.701069 C 1.8051224,61.78908 0.41124606,60.116836 0.39854596,59.984974 0.36082438,59.593315 63.523945,3.8014809 64.005069,3.8014809 c 0.281545,0 10.450082,8.8810471 32.031045,27.9754281 17.390206,15.386485 31.618556,28.058642 31.618556,28.160349 0,0.333509 -6.18927,7.245891 -6.42152,7.171768 C 121.10857,67.069268 108.23093,55.733834 92.616178,41.919172 77.001424,28.104511 64.126418,16.81143 64.005056,16.823436 63.883692,16.835442 50.973099,28.176527 35.314848,42.025846 19.656598,55.875166 6.7834631,67.1999 6.7078815,67.191919 6.6323,67.183941 5.1869753,65.613058 3.4960489,63.701069 Z"
       id="path2312"
       transform="translate(0,924.36218)" />
    <path
       style="fill:#ffffff;fill-opacity:0.993483;stroke-width:0.187727"
       d="M 19.242064,23.483328 V 11.639102 h 8.005159 8.00516 l -0.120607,1.153903 c -0.06633,0.634646 -0.120607,2.767708 -0.120607,4.740138 v 3.586236 l -6.898983,6.218327 c -3.794442,3.420079 -7.34249,6.616918 -7.884553,7.104086 l -0.985569,0.885762 z"
       id="path2314"
       transform="translate(0,924.36218)" />
  </g>
</svg>
