<?xml version="1.0" encoding="UTF-8" standalone="no"?>
<!-- Uploaded to: SVG Repo, www.svgrepo.com, Generator: SVG Repo Mixer Tools -->

<svg
   fill="#000000"
   height="800px"
   width="800px"
   version="1.1"
   id="Capa_1"
   viewBox="0 0 208.666 208.666"
   xml:space="preserve"
   sodipodi:docname="like.svg"
   inkscape:version="1.2.2 (b0a8486541, 2022-12-01)"
   xmlns:inkscape="http://www.inkscape.org/namespaces/inkscape"
   xmlns:sodipodi="http://sodipodi.sourceforge.net/DTD/sodipodi-0.dtd"
   xmlns="http://www.w3.org/2000/svg"
   xmlns:svg="http://www.w3.org/2000/svg"><defs
   id="defs9" /><sodipodi:namedview
   id="namedview7"
   pagecolor="#ffffff"
   bordercolor="#000000"
   borderopacity="0.25"
   inkscape:showpageshadow="2"
   inkscape:pageopacity="0.0"
   inkscape:pagecheckerboard="0"
   inkscape:deskcolor="#d1d1d1"
   showgrid="false"
   inkscape:zoom="0.9775"
   inkscape:cx="400"
   inkscape:cy="578.00512"
   inkscape:window-width="1920"
   inkscape:window-height="1011"
   inkscape:window-x="0"
   inkscape:window-y="0"
   inkscape:window-maximized="1"
   inkscape:current-layer="Capa_1" />
<g
   id="g4"
   style="fill:#ffffff"
   transform="matrix(1,0,0,-0.99232736,0,208.13232)">
	<path
   d="m 54.715,24.957 c -0.544,0.357 -1.162,0.598 -1.806,0.696 l -28.871,4.403 c -2.228,0.341 -3.956,2.257 -3.956,4.511 v 79.825 c 0,1.204 33.353,20.624 43.171,30.142 12.427,12.053 21.31,34.681 33.983,54.373 4.405,6.845 10.201,9.759 15.584,9.759 10.103,0 18.831,-10.273 14.493,-24.104 -4.018,-12.804 -8.195,-24.237 -13.934,-34.529 -4.672,-8.376 1.399,-18.7 10.989,-18.7 h 48.991 c 18.852,0 18.321,-26.312 8.552,-34.01 -1.676,-1.32 -2.182,-3.682 -1.175,-5.563 3.519,-6.572 2.86,-20.571 -6.054,-25.363 -2.15,-1.156 -3.165,-3.74 -2.108,-5.941 3.784,-7.878 3.233,-24.126 -8.71,-27.307 -2.242,-0.598 -3.699,-2.703 -3.405,-5.006 C 161.368,21.013 159.95,7.283 137.603,1.696 133.112,0.573 128.281,0 123.136,0 104.047,0.001 80.683,7.903 54.715,24.957 Z"
   id="path2"
   style="fill:#ffffff" />
</g>
</svg>
