<?xml version="1.0" encoding="UTF-8" standalone="no"?>
<!-- Created with Inkscape (http://www.inkscape.org/) -->

<svg
   width="393.48242"
   height="400"
   viewBox="0 0 393.48242 400"
   id="svg2"
   version="1.1"
   inkscape:version="1.2.2 (b0a8486541, 2022-12-01)"
   sodipodi:docname="loud.svg"
   inkscape:export-filename="/home/qubodup/x22.png"
   inkscape:export-xdpi="90"
   inkscape:export-ydpi="90"
   style="shape-rendering:crispEdges"
   xmlns:inkscape="http://www.inkscape.org/namespaces/inkscape"
   xmlns:sodipodi="http://sodipodi.sourceforge.net/DTD/sodipodi-0.dtd"
   xmlns="http://www.w3.org/2000/svg"
   xmlns:svg="http://www.w3.org/2000/svg"
   xmlns:rdf="http://www.w3.org/1999/02/22-rdf-syntax-ns#"
   xmlns:cc="http://creativecommons.org/ns#"
   xmlns:dc="http://purl.org/dc/elements/1.1/">
  <defs
     id="defs4">
    <linearGradient
       id="linearGradient3880">
      <stop
         offset="0"
         style="stop-color:#57b7ec"
         id="stop3882" />
      <stop
         offset="1"
         style="stop-color:#066b9d"
         id="stop3884" />
    </linearGradient>
  </defs>
  <sodipodi:namedview
     id="base"
     pagecolor="#ffffff"
     bordercolor="#666666"
     borderopacity="1.0"
     inkscape:pageopacity="0.0"
     inkscape:pageshadow="2"
     inkscape:zoom="0.70710678"
     inkscape:cx="86.974134"
     inkscape:cy="309.71277"
     inkscape:document-units="px"
     inkscape:current-layer="layer1"
     showgrid="false"
     units="px"
     inkscape:window-width="1734"
     inkscape:window-height="865"
     inkscape:window-x="0"
     inkscape:window-y="0"
     inkscape:window-maximized="0"
     inkscape:snap-bbox="false"
     inkscape:object-nodes="true"
     inkscape:snap-smooth-nodes="true"
     inkscape:snap-object-midpoints="true"
     fit-margin-top="0"
     fit-margin-left="0"
     fit-margin-right="0"
     fit-margin-bottom="0"
     inkscape:showpageshadow="2"
     inkscape:pagecheckerboard="0"
     inkscape:deskcolor="#d1d1d1" />
  <metadata
     id="metadata7">
    <rdf:RDF>
      <cc:Work
         rdf:about="">
        <dc:format>image/svg+xml</dc:format>
        <dc:type
           rdf:resource="http://purl.org/dc/dcmitype/StillImage" />
      </cc:Work>
    </rdf:RDF>
  </metadata>
  <g
     inkscape:label="Layer 1"
     inkscape:groupmode="layer"
     id="layer1"
     transform="translate(-55,-285.4683)">
    <path
       id="path4241"
       d="m 364.1836,685.4683 -18.02917,-15.67134 c 0,0 16.57589,-14.21011 33.63917,-44.73349 17.06329,-30.52338 34.14455,-76.95175 34.14455,-140.04281 0,-63.09178 -17.11526,-108.33596 -34.14455,-137.79187 -17.02848,-29.45953 -33.38648,-42.70884 -33.38648,-42.70884 l 18.43073,-14.6129 c 0,0 25.60547,20.68105 43.5372,51.7022 17.93579,30.93051 35.66853,78.40504 35.66853,143.14332 0,65.067 -17.76654,113.4211 -35.66265,145.43777 -17.89694,32.01381 -44.19145,55.00812 -44.19145,55.00812 z m -52.8652,-44.63076 -0.004,-0.1828 -19.53747,-14.9628 c 0,0 12.96755,-10.83745 26.30527,-33.94182 13.3377,-23.10367 26.81065,-58.22459 26.81065,-106.09927 0,-47.87468 -13.50857,-82.01659 -26.81065,-104.30094 -13.30213,-22.28435 -26.05258,-32.14349 -26.05258,-32.14349 l 18.17804,-15.18738 c 0,0 21.95711,17.62207 36.20134,41.48674 14.2442,23.86399 28.32876,60.2291 28.32876,110.14159 0,49.91538 -14.12016,87.10933 -28.32876,111.71707 -14.20861,24.6135 -35.09068,43.4731 -35.09068,43.4731 z m -99.68148,-15.0133 c -2.36995,0.1734 -5.72443,-1.04011 -10.43671,-3.90652 -18.85015,-11.46604 -87.32904,-77.85534 -87.32904,-77.85534 -0.59728,0 -1.06765,-0.18908 -1.64739,-0.24546 H 59.438895 V 427.15576 h 54.436185 c 0,0 67.26275,-66.63476 87.32904,-78.1008 20.06578,-11.46556 15.92734,6.34968 15.92734,14.15504 v 244.7964 c 0,5.85473 1.61707,17.29496 -5.49259,17.8161 z m 40.01128,-27.46577 -20.32885,-16.90039 c 0,0 47.80355,-29.89793 47.80355,-95.08651 0,-65.18569 -47.55086,-93.0636 -47.55086,-93.0636 l 19.82151,-18.88327 c 0,0 57.57424,41.36869 57.57424,111.93991 0,70.57624 -57.32156,111.98341 -57.32156,111.98341 z"
       style="fill:#ffffff;fill-opacity:1;stroke:#2f2f2f;stroke-width:9.45481;stroke-linecap:round;stroke-linejoin:round;stroke-miterlimit:4;stroke-dasharray:none;stroke-opacity:0"
       inkscape:connector-curvature="0"
       sodipodi:nodetypes="ccssccccscccccccsscccscccccccccsssccccccscccc" />
  </g>
</svg>
