<?xml version="1.0" encoding="UTF-8" standalone="no"?>
<!-- Created with Inkscape (http://www.inkscape.org/) -->

<svg
   width="70mm"
   height="70mm"
   viewBox="0 0 248.03149 248.03149"
   id="svg4526"
   version="1.1"
   inkscape:version="1.2.2 (b0a8486541, 2022-12-01)"
   sodipodi:docname="nouser.svg"
   xmlns:inkscape="http://www.inkscape.org/namespaces/inkscape"
   xmlns:sodipodi="http://sodipodi.sourceforge.net/DTD/sodipodi-0.dtd"
   xmlns="http://www.w3.org/2000/svg"
   xmlns:svg="http://www.w3.org/2000/svg"
   xmlns:rdf="http://www.w3.org/1999/02/22-rdf-syntax-ns#"
   xmlns:cc="http://creativecommons.org/ns#"
   xmlns:dc="http://purl.org/dc/elements/1.1/">
  <defs
     id="defs4528" />
  <sodipodi:namedview
     id="base"
     pagecolor="#ffffff"
     bordercolor="#666666"
     borderopacity="1.0"
     inkscape:pageopacity="0.0"
     inkscape:pageshadow="2"
     inkscape:zoom="2.8"
     inkscape:cx="153.21429"
     inkscape:cy="178.57143"
     inkscape:document-units="px"
     inkscape:current-layer="g4417"
     showgrid="false"
     inkscape:window-width="1920"
     inkscape:window-height="1011"
     inkscape:window-x="0"
     inkscape:window-y="0"
     inkscape:window-maximized="1"
     inkscape:showpageshadow="2"
     inkscape:pagecheckerboard="0"
     inkscape:deskcolor="#d1d1d1" />
  <metadata
     id="metadata4531">
    <rdf:RDF>
      <cc:Work
         rdf:about="">
        <dc:format>image/svg+xml</dc:format>
        <dc:type
           rdf:resource="http://purl.org/dc/dcmitype/StillImage" />
        <dc:title />
      </cc:Work>
    </rdf:RDF>
  </metadata>
  <g
     inkscape:label="Laag 1"
     inkscape:groupmode="layer"
     id="layer1"
     transform="translate(0,-804.33071)">
    <g
       id="g4417"
       transform="translate(881.46716,30.977927)">
      <path
         inkscape:connector-curvature="0"
         id="path4293-4"
         d="m -742.54053,1011.8575 c -2.2224,-0.2267 -57.51876,0.1465 -58.35216,-0.1834 -0.8334,-0.3299 -19.04533,-3.8039 -28.60703,-6.5627 -9.5617,-2.7588 -17.4523,-5.0834 -17.5347,-5.16577 -0.2391,-0.23915 2.2788,-42.51155 2.8639,-48.08132 2.2676,-21.58406 6.0483,-32.16101 14.8649,-41.58634 7.5909,-8.11487 14.9224,-11.77177 27.5448,-13.73911 5.5107,-0.85889 39.4433,-1.23111 47.6206,-0.52237 13.0001,1.12673 21.3056,3.10399 29.1231,6.93322 3.9457,1.93271 5.526,3.0883 9.1422,6.68524 9.4197,9.36932 13.7657,22.358 15.8544,47.38281 1.1656,13.96555 2.4884,42.59709 1.9903,43.07934 -0.9176,0.8884 -17.82732,5.1617 -23.3654,6.5414 -10.20097,2.5414 -10.59537,2.7085 -21.14491,5.219 z"
         style="opacity:1;fill:#7b487d;fill-opacity:1;fill-rule:nonzero;stroke:none;stroke-width:0.505076;stroke-opacity:1"
         sodipodi:nodetypes="csscccssscsssc" />
      <ellipse
         ry="38.327599"
         rx="40.658642"
         cy="852.12561"
         cx="-774.50519"
         id="path4295-9"
         style="opacity:1;fill:#7b487d;fill-opacity:1;fill-rule:nonzero;stroke:none;stroke-opacity:1" />
    </g>
  </g>
</svg>
