<?xml version="1.0" encoding="UTF-8" standalone="no"?>
<svg
   id="svg1"
   viewBox="0 0 60 60"
   sodipodi:version="0.32"
   _SVGFile__filename="oldscale/devices/tv.svg"
   version="1.0"
   inkscape:version="1.2.2 (b0a8486541, 2022-12-01)"
   y="0"
   x="0"
   sodipodi:docname="subs.svg"
   xmlns:inkscape="http://www.inkscape.org/namespaces/inkscape"
   xmlns:sodipodi="http://sodipodi.sourceforge.net/DTD/sodipodi-0.dtd"
   xmlns="http://www.w3.org/2000/svg"
   xmlns:svg="http://www.w3.org/2000/svg"
   xmlns:rdf="http://www.w3.org/1999/02/22-rdf-syntax-ns#"
   xmlns:cc="http://creativecommons.org/ns#"
   xmlns:dc="http://purl.org/dc/elements/1.1/">
  <defs
     id="defs25" />
  <sodipodi:namedview
     id="base"
     bordercolor="#666666"
     inkscape:window-x="0"
     inkscape:window-y="0"
     pagecolor="#ffffff"
     inkscape:zoom="6.2339742"
     inkscape:pageshadow="2"
     borderopacity="1.0"
     inkscape:current-layer="g2250"
     inkscape:cx="14.677635"
     inkscape:cy="13.795373"
     inkscape:window-width="1920"
     inkscape:pageopacity="0.0"
     inkscape:window-height="1011"
     inkscape:showpageshadow="2"
     inkscape:pagecheckerboard="0"
     inkscape:deskcolor="#d1d1d1"
     showgrid="false"
     inkscape:window-maximized="1" />
  <g
     id="g2250"
     transform="matrix(.94957 0 0 .94957 1.425 1.6363)">
    <path
       id="path791"
       style="fill:none;stroke:#000000;stroke-width:1.9746"
       transform="translate(0.91453,-0.6362)"
       d="M 26.817296,19.785572 15.396,5.923"
       sodipodi:nodetypes="cc" />
    <path
       id="path794"
       style="fill:none;stroke:#000000;stroke-width:1.9746"
       transform="translate(0.91453,-0.6362)"
       d="M 31.737173,19.674614 43.135,5.668"
       sodipodi:nodetypes="cc" />
    <path
       id="path795"
       d="m-18.323 6.686c0 0.7727-0.627 1.3997-1.399 1.3997-0.773 0-1.4-0.627-1.4-1.3997 0-0.7726 0.627-1.3996 1.4-1.3996 0.772 0 1.399 0.627 1.399 1.3996z"
       style="stroke-linejoin:round;fill-rule:evenodd;stroke:#000000;stroke-linecap:round;stroke-width:1.9746;fill:#000000"
       transform="translate(36.16 -1.5269)" />
    <path
       id="path796"
       d="m-18.323 6.686c0 0.7727-0.627 1.3997-1.399 1.3997-0.773 0-1.4-0.627-1.4-1.3997 0-0.7726 0.627-1.3996 1.4-1.3996 0.772 0 1.399 0.627 1.399 1.3996z"
       style="stroke-linejoin:round;fill-rule:evenodd;stroke:#000000;stroke-linecap:round;stroke-width:1.9746;fill:#000000"
       transform="translate(63.469 -1.7814)" />
    <rect
       id="rect627"
       style="stroke-linejoin:round;fill-rule:evenodd;stroke:#000000;stroke-linecap:round;stroke-width:3.291;fill:#ffffff;fill-opacity:0.02628017"
       transform="translate(0 -.63620)"
       rx="2"
       ry="2"
       height="37.282"
       width="53.314"
       y="18.931"
       x="3.4355" />
    <path
       style="fill:#ffffff;fill-opacity:0.993483;stroke-width:0.160411"
       d="M 5.0380837,55.449897 C 4.1261259,54.968439 3.4922533,54.052405 3.284195,52.915282 3.1760618,52.324291 3.1344274,46.508056 3.1636263,36.072093 3.2061736,20.865287 3.2220102,20.105779 3.5077099,19.57018 3.9284576,18.781408 4.3895934,18.31052 5.1331621,17.910354 5.7662722,17.569632 5.9003237,17.56444 15.210698,17.52001 20.400437,17.49524 24.623265,17.419084 24.59476,17.350767 24.56625,17.282447 22.955061,15.299576 21.014331,12.944382 17.679068,8.8968384 17.4563,8.662211 16.948592,8.662211 c -1.207697,0 -2.265777,-1.2878011 -2.041281,-2.4844663 0.236539,-1.260862 1.714483,-2.1433773 2.821551,-1.6848148 0.800903,0.3317449 1.44029,1.1928128 1.44029,1.9396501 0,0.3556351 -0.07231,0.7817262 -0.160693,0.9468692 -0.13623,0.2545453 0.453076,1.0466789 3.870627,5.2028218 l 4.031321,4.902562 3.147367,-0.0065 3.147368,-0.0065 3.924349,-4.838469 C 39.287882,9.9722774 41.042759,7.6833095 41.029215,7.5468399 41.015677,7.4103703 40.956073,6.9677962 40.89677,6.563342 40.550051,4.1986438 43.872774,3.1997511 44.898091,5.3604461 c 0.31489,0.6635846 0.324036,1.0699803 0.03922,1.7429054 -0.303172,0.7162869 -0.777619,1.0950284 -1.648852,1.316243 -0.719971,0.182808 -0.863102,0.3348063 -4.31945,4.5870525 l -3.574804,4.397981 9.412411,0.0802 c 6.597798,0.05622 9.535036,0.135448 9.822482,0.264941 0.680406,0.306519 1.428006,1.019969 1.802619,1.720276 l 0.353892,0.66157 0.04459,16.034194 c 0.03075,11.058623 -0.0094,16.294037 -0.129247,16.871561 -0.225694,1.087158 -0.956791,2.086294 -1.810075,2.47369 -0.650646,0.2954 -1.43681,0.305138 -24.908832,0.30855 L 5.7450638,55.82311 Z M 53.737791,36.734191 V 20.612854 H 29.996916 6.2560413 L 6.2146935,36.57378 c -0.022741,8.778509 -0.00687,16.051396 0.035272,16.161969 0.061022,0.16012 4.9021995,0.192773 23.7822215,0.160412 l 23.705604,-0.04063 z"
       id="path1534"
       transform="matrix(1.0531082,0,0,1.0531082,-1.5006793,-1.723201)" />
  </g>
  <metadata
     id="metadata22">
    <rdf:RDF>
      <cc:Work>
        <dc:format>image/svg+xml</dc:format>
        <dc:type
           rdf:resource="http://purl.org/dc/dcmitype/StillImage" />
        <cc:license
           rdf:resource="http://creativecommons.org/licenses/publicdomain/" />
        <dc:publisher>
          <cc:Agent
             rdf:about="http://openclipart.org/">
            <dc:title>Openclipart</dc:title>
          </cc:Agent>
        </dc:publisher>
      </cc:Work>
      <cc:License
         rdf:about="http://creativecommons.org/licenses/publicdomain/">
        <cc:permits
           rdf:resource="http://creativecommons.org/ns#Reproduction" />
        <cc:permits
           rdf:resource="http://creativecommons.org/ns#Distribution" />
        <cc:permits
           rdf:resource="http://creativecommons.org/ns#DerivativeWorks" />
      </cc:License>
    </rdf:RDF>
  </metadata>
</svg>
